<svg xmlns="http://www.w3.org/2000/svg" xmlns:xlink="http://www.w3.org/1999/xlink" width="209" height="81" viewBox="0 0 209 81">
  <metadata><?xpacket begin="﻿" id="W5M0MpCehiHzreSzNTczkc9d"?>
<x:xmpmeta xmlns:x="adobe:ns:meta/" x:xmptk="Adobe XMP Core 5.6-c142 79.160924, 2017/07/13-01:06:39        ">
   <rdf:RDF xmlns:rdf="http://www.w3.org/1999/02/22-rdf-syntax-ns#">
      <rdf:Description rdf:about=""/>
   </rdf:RDF>
</x:xmpmeta>
                                                                                                    
                                                                                                    
                                                                                                    
                                                                                                    
                                                                                                    
                                                                                                    
                                                                                                    
                                                                                                    
                                                                                                    
                                                                                                    
                                                                                                    
                                                                                                    
                                                                                                    
                                                                                                    
                                                                                                    
                                                                                                    
                                                                                                    
                                                                                                    
                                                                                                    
                                                                                                    
                           
<?xpacket end="w"?></metadata>
<defs>
    <style>
      .cls-1, .cls-2, .cls-3, .cls-4, .cls-5 {
        fill-rule: evenodd;
      }

      .cls-1 {
        fill: url(#linear-gradient);
      }

      .cls-2 {
        fill: url(#linear-gradient-2);
      }

      .cls-3 {
        fill: url(#linear-gradient-3);
      }

      .cls-4 {
        fill: #2e325d;
      }

      .cls-5 {
        fill: #f7931b;
      }
    </style>
    <linearGradient id="linear-gradient" x1="84.125" y1="5.969" x2="14.031" y2="76.063" gradientUnits="userSpaceOnUse">
      <stop offset="0" stop-color="#eff2f3"/>
      <stop offset="1" stop-color="#dad9d9"/>
    </linearGradient>
    <linearGradient id="linear-gradient-2" x1="39.313" y1="60.078" x2="64.469" y2="34.922" gradientUnits="userSpaceOnUse">
      <stop offset="0" stop-color="#62668c"/>
      <stop offset="1" stop-color="#2e325d"/>
    </linearGradient>
    <linearGradient id="linear-gradient-3" x1="59.531" y1="21.844" x2="34.375" y2="47" gradientUnits="userSpaceOnUse">
      <stop offset="0" stop-color="#f3cf3e"/>
      <stop offset="1" stop-color="#f7931b"/>
    </linearGradient>
  </defs>
  <path id="Rounded_Rectangle_1" data-name="Rounded Rectangle 1" class="cls-1" d="M16.824,34.088L42.138,8.817a9.8,9.8,0,0,1,13.848,0L81.3,34.088a9.763,9.763,0,0,1,0,13.824L55.986,73.183a9.8,9.8,0,0,1-13.848,0L16.824,47.912A9.763,9.763,0,0,1,16.824,34.088Z"/>
  <path id="Ellipse_2_copy" data-name="Ellipse 2 copy" class="cls-2" d="M58.978,34.485a14.619,14.619,0,0,1-9.172,26.027c0.029,0-.707,0-0.7,0a9.775,9.775,0,1,1,0-19.55"/>
  <path id="Ellipse_2_copy_3" data-name="Ellipse 2 copy 3" class="cls-3" d="M49.728,40.961a9.775,9.775,0,1,0,0-19.55s-0.783,0-.783,0A14.57,14.57,0,0,0,34.374,36.034a14.732,14.732,0,0,0,5.484,11.417A10.45,10.45,0,0,1,49.728,40.961Z"/>
  <path id="SCT" class="cls-4" d="M109.929,37.7a12.6,12.6,0,0,1,2.727,1.24,2.072,2.072,0,0,1,.969,1.845,2.614,2.614,0,0,1-1.212,2.117,7.206,7.206,0,0,1-4.181.907,14.484,14.484,0,0,1-5.362-.968,16.45,16.45,0,0,1-4.151-2.3,7.856,7.856,0,0,0-2.242,1.905,4.53,4.53,0,0,0-1.03,2.994,4.775,4.775,0,0,0,1,2.994,7.709,7.709,0,0,0,2.787,2.177,16.394,16.394,0,0,0,4.181,1.331,27.841,27.841,0,0,0,5.181.454q7.876,0,11.937-3.175a10.057,10.057,0,0,0,4.059-8.316,9.879,9.879,0,0,0-3.06-7.651,23.266,23.266,0,0,0-8.755-4.627L109.565,27.6a8.151,8.151,0,0,1-2.363-1.058,1.758,1.758,0,0,1-.787-1.482,2.2,2.2,0,0,1,1.272-1.905,8.106,8.106,0,0,1,4-.756,17.965,17.965,0,0,1,4.908.635,13.735,13.735,0,0,1,3.575,1.482,7.508,7.508,0,0,0,1.757-1.905,4.827,4.827,0,0,0,.727-2.691,4.385,4.385,0,0,0-.908-2.752,6.713,6.713,0,0,0-2.515-1.935,14.5,14.5,0,0,0-3.848-1.119,30.393,30.393,0,0,0-4.847-.363q-7.15,0-11.119,3.084a9.891,9.891,0,0,0-3.969,8.225,10.416,10.416,0,0,0,.879,4.506,9.381,9.381,0,0,0,2.454,3.175,14.846,14.846,0,0,0,3.757,2.268q2.181,0.938,4.847,1.845Zm44.747-14.817a19.753,19.753,0,0,1,3.363,1.754,6.465,6.465,0,0,0,1.818-1.814,4.693,4.693,0,0,0,.788-2.722q0-2.842-3.06-4.657t-8.635-1.814a21.249,21.249,0,0,0-7.392,1.27,17.082,17.082,0,0,0-6.029,3.75,17.675,17.675,0,0,0-4.06,6.078,21.668,21.668,0,0,0-1.484,8.316,22.4,22.4,0,0,0,1.545,8.739,16.678,16.678,0,0,0,4.211,6.048,17.015,17.015,0,0,0,6.241,3.538,24.82,24.82,0,0,0,7.635,1.149q5.636,0,8.392-1.724t2.757-4.2a6.2,6.2,0,0,0-.576-2.752,6.024,6.024,0,0,0-1.6-2.026,28.8,28.8,0,0,1-3.3,1.512,11.737,11.737,0,0,1-4.211.665,9.86,9.86,0,0,1-7.423-2.842q-2.757-2.842-2.757-8.1,0-5.2,2.485-8.044t7.15-2.843A10.975,10.975,0,0,1,154.676,22.887Zm21.177,0.363V46.715a7.341,7.341,0,0,0,.364,2.54,3.267,3.267,0,0,0,1.09,1.512,4.363,4.363,0,0,0,1.788.756,12.654,12.654,0,0,0,2.454.212,22.273,22.273,0,0,0,2.817-.181,16.9,16.9,0,0,0,2.091-.363V23.249h6.726a3.8,3.8,0,0,0,2.757-1.028A4.573,4.573,0,0,0,197,18.835a7.955,7.955,0,0,0-.364-2.419,7.868,7.868,0,0,0-.787-1.814H169.43a3.8,3.8,0,0,0-2.757,1.028,4.57,4.57,0,0,0-1.06,3.387,7.981,7.981,0,0,0,.363,2.419,7.828,7.828,0,0,0,.788,1.814h9.089Z"/>
  <path id="Safe_crypto_trading" data-name="Safe crypto trading" class="cls-5" d="M98.006,64.081a2.264,2.264,0,0,1,.491.223,0.373,0.373,0,0,1,.174.332,0.471,0.471,0,0,1-.218.381,1.3,1.3,0,0,1-.753.163,2.607,2.607,0,0,1-.965-0.174,2.96,2.96,0,0,1-.747-0.414,1.414,1.414,0,0,0-.4.343,0.815,0.815,0,0,0-.185.539,0.86,0.86,0,0,0,.18.539,1.388,1.388,0,0,0,.5.392,2.95,2.95,0,0,0,.753.24,5.014,5.014,0,0,0,.933.082,3.439,3.439,0,0,0,2.149-.572,1.811,1.811,0,0,0,.731-1.5,1.779,1.779,0,0,0-.551-1.377,4.186,4.186,0,0,0-1.576-.833l-0.578-.185a1.469,1.469,0,0,1-.425-0.191,0.316,0.316,0,0,1-.142-0.267,0.4,0.4,0,0,1,.229-0.343,1.459,1.459,0,0,1,.72-0.136,3.234,3.234,0,0,1,.883.114,2.471,2.471,0,0,1,.643.267,1.35,1.35,0,0,0,.316-0.343,0.872,0.872,0,0,0,.131-0.484,0.789,0.789,0,0,0-.164-0.5,1.207,1.207,0,0,0-.452-0.348,2.607,2.607,0,0,0-.693-0.2,5.464,5.464,0,0,0-.873-0.065,3.192,3.192,0,0,0-2,.555,1.78,1.78,0,0,0-.714,1.481,1.875,1.875,0,0,0,.158.811,1.688,1.688,0,0,0,.442.572,2.677,2.677,0,0,0,.676.408q0.393,0.169.873,0.332Zm5.666,1.159a0.435,0.435,0,0,1-.169-0.354,0.352,0.352,0,0,1,.2-0.327,1.212,1.212,0,0,1,.5-0.131l0.786-.065v0.871a1,1,0,0,1-.333.1,2.426,2.426,0,0,1-.409.038A0.928,0.928,0,0,1,103.671,65.241Zm-0.327-4.088a3.293,3.293,0,0,0-.747.174,1.058,1.058,0,0,0-.42.288,0.7,0.7,0,0,0-.136.452,0.951,0.951,0,0,0,.1.419,0.746,0.746,0,0,0,.24.3,4.305,4.305,0,0,1,.709-0.218,3.723,3.723,0,0,1,.807-0.087,1.879,1.879,0,0,1,.8.136,0.467,0.467,0,0,1,.278.452v0.076l-1.429.152a2.416,2.416,0,0,0-1.385.5,1.473,1.473,0,0,0-.447,1.154,1.64,1.64,0,0,0,.18.784,1.5,1.5,0,0,0,.512.555,2.472,2.472,0,0,0,.8.327,4.583,4.583,0,0,0,1.042.109,3.9,3.9,0,0,0,2-.424,1.572,1.572,0,0,0,.376-0.31,0.671,0.671,0,0,0,.158-0.463V63.091a1.978,1.978,0,0,0-.185-0.887,1.65,1.65,0,0,0-.529-0.62,2.4,2.4,0,0,0-.829-0.365,4.491,4.491,0,0,0-1.074-.12A6.512,6.512,0,0,0,103.344,61.153Zm4.914,4.616a1.159,1.159,0,0,0,.07.441,0.637,0.637,0,0,0,.2.267,0.741,0.741,0,0,0,.322.131,2.567,2.567,0,0,0,.431.033,3.506,3.506,0,0,0,.485-0.033,2.579,2.579,0,0,0,.344-0.065V63.091h1.254a0.613,0.613,0,0,0,.453-0.169,0.757,0.757,0,0,0,.169-0.55,1.249,1.249,0,0,0-.06-0.4,1.834,1.834,0,0,0-.126-0.3h-1.788V61.327a0.59,0.59,0,0,1,.261-0.55,1.421,1.421,0,0,1,.731-0.158,3.117,3.117,0,0,1,.518.038c0.149,0.026.293,0.056,0.431,0.093a0.864,0.864,0,0,0,.294-0.653,0.76,0.76,0,0,0-.381-0.724,2.546,2.546,0,0,0-1.189-.212,3.6,3.6,0,0,0-.944.12,2.144,2.144,0,0,0-.768.376,1.811,1.811,0,0,0-.519.653,2.187,2.187,0,0,0-.19.953v4.507Zm8.376,0.893a2.427,2.427,0,0,0,.785-0.25,0.8,0.8,0,0,0,.338-1.143,0.914,0.914,0,0,0-.294-0.3,2.689,2.689,0,0,1-.649.267,3.051,3.051,0,0,1-.845.114,1.929,1.929,0,0,1-.851-0.18,0.906,0.906,0,0,1-.491-0.539l2.694-.4a1.036,1.036,0,0,0,.578-0.25,0.742,0.742,0,0,0,.207-0.566,2.234,2.234,0,0,0-.19-0.925,2.145,2.145,0,0,0-.535-0.729,2.539,2.539,0,0,0-.818-0.479,3.035,3.035,0,0,0-1.052-.174,3.263,3.263,0,0,0-1,.158,2.4,2.4,0,0,0-1.489,1.339,2.98,2.98,0,0,0-.234,1.236,3.2,3.2,0,0,0,.234,1.274,2.5,2.5,0,0,0,.644.9,2.7,2.7,0,0,0,.96.539,3.827,3.827,0,0,0,1.194.18A5.54,5.54,0,0,0,116.634,66.661Zm-0.513-4a0.818,0.818,0,0,1,.24.435l-1.865.3a1.245,1.245,0,0,1,.071-0.343,0.928,0.928,0,0,1,.18-0.3,0.918,0.918,0,0,1,.311-0.223,1.083,1.083,0,0,1,.453-0.087A0.8,0.8,0,0,1,116.121,62.666Zm9.271-.027a3.545,3.545,0,0,1,.447.169,1.342,1.342,0,0,0,.229-0.31,0.787,0.787,0,0,0,.1-0.386,0.847,0.847,0,0,0-.425-0.729,2.181,2.181,0,0,0-1.211-.283,3.56,3.56,0,0,0-1.118.174,2.711,2.711,0,0,0-.932.523,2.43,2.43,0,0,0-.638.887,3.118,3.118,0,0,0-.235,1.257,2.848,2.848,0,0,0,.219,1.132,2.49,2.49,0,0,0,.616.876,2.8,2.8,0,0,0,.954.566,3.633,3.633,0,0,0,1.243.2,2.369,2.369,0,0,0,1.178-.245,0.762,0.762,0,0,0,.426-0.691,0.82,0.82,0,0,0-.109-0.43,1.132,1.132,0,0,0-.328-0.332,3.4,3.4,0,0,1-.425.163,1.878,1.878,0,0,1-.567.076,1.384,1.384,0,0,1-.943-0.338,1.268,1.268,0,0,1-.388-1.012,1.475,1.475,0,0,1,.109-0.588,1.255,1.255,0,0,1,.289-0.419,1.2,1.2,0,0,1,.426-0.256,1.535,1.535,0,0,1,.518-0.087A1.893,1.893,0,0,1,125.392,62.639Zm3.959,0.191a1.9,1.9,0,0,1,.344-0.114c0.134-.033.278-0.064,0.431-0.093s0.308-.051.469-0.065,0.316-.022.468-0.022a1.4,1.4,0,0,0,.11-0.267,1.048,1.048,0,0,0,.043-0.3,0.731,0.731,0,0,0-.305-0.659,1.491,1.491,0,0,0-.829-0.2,4.14,4.14,0,0,0-.633.049,4.662,4.662,0,0,0-.61.136,4.443,4.443,0,0,0-.551.2,1.925,1.925,0,0,0-.431.256,1,1,0,0,0-.267.321,0.925,0.925,0,0,0-.093.43v3.266a1.157,1.157,0,0,0,.071.441,0.621,0.621,0,0,0,.2.267,0.732,0.732,0,0,0,.321.131,2.576,2.576,0,0,0,.431.033,3.531,3.531,0,0,0,.486-0.033,2.557,2.557,0,0,0,.343-0.065V62.829Zm4.423,3.13a1.02,1.02,0,0,0,.4.256,7.28,7.28,0,0,1-.633.68q-0.349.332-.7,0.6a1.142,1.142,0,0,0,.338.708,1.028,1.028,0,0,0,.742.272,1.772,1.772,0,0,0,.5-0.071,1.453,1.453,0,0,0,.48-0.261,3.118,3.118,0,0,0,.5-0.528,7.489,7.489,0,0,0,.567-0.871q0.186-.316.382-0.713t0.382-.844c0.123-.3.242-0.6,0.354-0.909s0.211-.608.295-0.9,0.151-.564.2-0.822a3.635,3.635,0,0,0,.076-0.68,0.624,0.624,0,0,0-.251-0.566,1.137,1.137,0,0,0-.633-0.163,1.822,1.822,0,0,0-.861.207q-0.076.447-.18,0.909t-0.224.925q-0.12.463-.245,0.9t-0.256.806h-0.044L134.106,61.9a0.969,0.969,0,0,0-.37-0.593,1.173,1.173,0,0,0-.633-0.158,1.416,1.416,0,0,0-.971.381q0.174,0.729.333,1.29t0.305,1q0.147,0.436.284,0.773t0.256,0.61A2.511,2.511,0,0,0,133.774,65.959Zm6.277-4.73a2.886,2.886,0,0,0-.84.348,1.324,1.324,0,0,0-.344.337,0.843,0.843,0,0,0-.125.479v5.225a1.256,1.256,0,0,0,.065.441,0.59,0.59,0,0,0,.2.267,0.731,0.731,0,0,0,.321.131,2.567,2.567,0,0,0,.431.033,3.142,3.142,0,0,0,.491-0.038,2.993,2.993,0,0,0,.349-0.071V66.574a2.62,2.62,0,0,0,.872.142,3.461,3.461,0,0,0,1.129-.174,2.268,2.268,0,0,0,.867-0.528,2.386,2.386,0,0,0,.557-0.876,3.479,3.479,0,0,0,.2-1.219,3.141,3.141,0,0,0-.229-1.257,2.4,2.4,0,0,0-.633-0.876,2.6,2.6,0,0,0-.965-0.517,4.216,4.216,0,0,0-1.216-.169A4.452,4.452,0,0,0,140.051,61.229Zm0.818,3.984a1.634,1.634,0,0,1-.284-0.109v-2.4a1.471,1.471,0,0,1,.284-0.114,1.289,1.289,0,0,1,.37-0.049,0.98,0.98,0,0,1,.8.337,1.608,1.608,0,0,1,.278,1.034,1.1,1.1,0,0,1-1.123,1.339A1.18,1.18,0,0,1,140.869,65.213Zm6.434-2.123H148.3a0.613,0.613,0,0,0,.453-0.169,0.757,0.757,0,0,0,.169-0.55,1.249,1.249,0,0,0-.06-0.4,1.834,1.834,0,0,0-.126-0.3H147.3v-0.7a0.788,0.788,0,0,0-.267-0.713,1.4,1.4,0,0,0-.747-0.169,2.83,2.83,0,0,0-.474.038c-0.149.026-.264,0.049-0.344,0.071v4.659a1.752,1.752,0,0,0,.518,1.415,2.236,2.236,0,0,0,1.478.436,1.735,1.735,0,0,0,1.1-.261,0.842,0.842,0,0,0,.311-0.675,0.813,0.813,0,0,0-.071-0.354,1.345,1.345,0,0,0-.169-0.267,1.877,1.877,0,0,1-.3.071,2.193,2.193,0,0,1-.338.027,0.911,0.911,0,0,1-.508-0.12,0.447,0.447,0,0,1-.18-0.4V63.091Zm8.05-.337a2.513,2.513,0,0,0-.584-0.887,2.639,2.639,0,0,0-.9-0.566,3.229,3.229,0,0,0-1.167-.2,3.308,3.308,0,0,0-1.167.2,2.573,2.573,0,0,0-.9.561,2.509,2.509,0,0,0-.583.887,3.411,3.411,0,0,0,0,2.341,2.508,2.508,0,0,0,.583.887,2.57,2.57,0,0,0,.9.561,3.308,3.308,0,0,0,1.167.2,3.485,3.485,0,0,0,1.167-.185,2.483,2.483,0,0,0,.9-0.544,2.447,2.447,0,0,0,.584-0.887,3.275,3.275,0,0,0,.207-1.2A3.107,3.107,0,0,0,155.353,62.753Zm-3.36.147a0.887,0.887,0,0,1,1.418,0,1.727,1.727,0,0,1,.251,1.007,1.786,1.786,0,0,1-.245,1.012,0.8,0.8,0,0,1-.7.359A0.832,0.832,0,0,1,152,64.925,2.145,2.145,0,0,1,151.993,62.9Zm9.162,0.191h0.992a0.613,0.613,0,0,0,.453-0.169,0.753,0.753,0,0,0,.169-0.55,1.249,1.249,0,0,0-.06-0.4,1.933,1.933,0,0,0-.125-0.3h-1.429v-0.7a0.788,0.788,0,0,0-.267-0.713,1.4,1.4,0,0,0-.747-0.169,2.834,2.834,0,0,0-.475.038c-0.149.026-.264,0.049-0.343,0.071v4.659a1.749,1.749,0,0,0,.518,1.415,2.236,2.236,0,0,0,1.478.436,1.739,1.739,0,0,0,1.1-.261,0.841,0.841,0,0,0,.31-0.675,0.813,0.813,0,0,0-.07-0.354,1.392,1.392,0,0,0-.169-0.267,1.917,1.917,0,0,1-.306.071,2.183,2.183,0,0,1-.338.027,0.909,0.909,0,0,1-.507-0.12,0.447,0.447,0,0,1-.18-0.4V63.091Zm4.69-.261a1.882,1.882,0,0,1,.343-0.114c0.135-.033.278-0.064,0.431-0.093s0.309-.051.469-0.065,0.316-.022.469-0.022a1.333,1.333,0,0,0,.109-0.267,1.049,1.049,0,0,0,.044-0.3,0.73,0.73,0,0,0-.306-0.659,1.489,1.489,0,0,0-.829-0.2,4.127,4.127,0,0,0-.632.049,4.677,4.677,0,0,0-.611.136,4.5,4.5,0,0,0-.551.2,1.916,1.916,0,0,0-.43.256,1.007,1.007,0,0,0-.268.321,0.925,0.925,0,0,0-.092.43v3.266a1.159,1.159,0,0,0,.07.441,0.637,0.637,0,0,0,.2.267,0.741,0.741,0,0,0,.322.131,2.567,2.567,0,0,0,.431.033,3.506,3.506,0,0,0,.485-0.033,2.579,2.579,0,0,0,.344-0.065V62.829Zm4.488,2.411a0.432,0.432,0,0,1-.169-0.354,0.351,0.351,0,0,1,.2-0.327,1.213,1.213,0,0,1,.5-0.131l0.785-.065v0.871a1,1,0,0,1-.333.1,2.426,2.426,0,0,1-.409.038A0.923,0.923,0,0,1,170.333,65.241Zm-0.327-4.088a3.29,3.29,0,0,0-.748.174,1.046,1.046,0,0,0-.419.288,0.7,0.7,0,0,0-.137.452,0.951,0.951,0,0,0,.1.419,0.763,0.763,0,0,0,.24.3,4.335,4.335,0,0,1,.709-0.218,3.723,3.723,0,0,1,.807-0.087,1.876,1.876,0,0,1,.8.136,0.467,0.467,0,0,1,.278.452v0.076l-1.429.152a2.416,2.416,0,0,0-1.385.5,1.473,1.473,0,0,0-.447,1.154,1.64,1.64,0,0,0,.18.784,1.5,1.5,0,0,0,.513.555,2.463,2.463,0,0,0,.8.327,4.574,4.574,0,0,0,1.041.109,3.9,3.9,0,0,0,2-.424,1.578,1.578,0,0,0,.377-0.31,0.676,0.676,0,0,0,.158-0.463V63.091a1.978,1.978,0,0,0-.186-0.887,1.641,1.641,0,0,0-.529-0.62,2.4,2.4,0,0,0-.829-0.365,4.48,4.48,0,0,0-1.074-.12A6.509,6.509,0,0,0,170.006,61.153Zm4.864,3.924a2.428,2.428,0,0,0,.589.887,2.578,2.578,0,0,0,.949.566,4.264,4.264,0,0,0,2.427.038,3.333,3.333,0,0,0,.818-0.365,0.93,0.93,0,0,0,.479-0.816v-5.16a1.233,1.233,0,0,0-.065-0.441,0.6,0.6,0,0,0-.2-0.267,0.74,0.74,0,0,0-.322-0.131,2.578,2.578,0,0,0-.431-0.033,3.13,3.13,0,0,0-.491.038,3.02,3.02,0,0,0-.349.071v1.764a1.709,1.709,0,0,0-.338-0.093,2.346,2.346,0,0,0-.425-0.038,3.591,3.591,0,0,0-1.118.169,2.482,2.482,0,0,0-.905.517,2.38,2.38,0,0,0-.606.876,3.261,3.261,0,0,0-.218,1.246A3.188,3.188,0,0,0,174.87,65.077Zm3.419-2.4v2.395a0.8,0.8,0,0,1-.245.136,1,1,0,0,1-.355.06,1.058,1.058,0,0,1-.85-0.343,1.522,1.522,0,0,1-.295-1.018,1.45,1.45,0,0,1,.316-1.023,1.182,1.182,0,0,1,.906-0.337,1,1,0,0,1,.523.131h0Zm3.561-2.188a1.1,1.1,0,0,0,1.473,0,1.012,1.012,0,0,0,0-1.393,1.1,1.1,0,0,0-1.473,0A1.012,1.012,0,0,0,181.85,60.489Zm1.663,1.622a1.161,1.161,0,0,0-.07-0.441,0.637,0.637,0,0,0-.2-0.267,0.736,0.736,0,0,0-.322-0.131,2.578,2.578,0,0,0-.431-0.033,2.945,2.945,0,0,0-.474.038c-0.157.026-.275,0.045-0.355,0.06v4.431a1.157,1.157,0,0,0,.071.441,0.629,0.629,0,0,0,.2.267,0.731,0.731,0,0,0,.322.131,2.567,2.567,0,0,0,.431.033,2.954,2.954,0,0,0,.474-0.038l0.354-.06V62.111Zm4.865,3.658a1.138,1.138,0,0,0,.071.441,0.621,0.621,0,0,0,.2.267,0.732,0.732,0,0,0,.321.131,2.567,2.567,0,0,0,.431.033,3.506,3.506,0,0,0,.485-0.033,2.546,2.546,0,0,0,.344-0.065V63.134a1.821,1.821,0,0,0-.665-1.5,2.95,2.95,0,0,0-1.9-.539,4.464,4.464,0,0,0-1.249.163,3.125,3.125,0,0,0-.932.425,1.309,1.309,0,0,0-.344.337,0.835,0.835,0,0,0-.125.479v3.266a1.159,1.159,0,0,0,.07.441,0.637,0.637,0,0,0,.2.267,0.736,0.736,0,0,0,.322.131,2.567,2.567,0,0,0,.431.033,3.506,3.506,0,0,0,.485-0.033,2.579,2.579,0,0,0,.344-0.065V62.764a1.08,1.08,0,0,1,.365-0.163,1.73,1.73,0,0,1,.431-0.055,0.789,0.789,0,0,1,.518.158,0.607,0.607,0,0,1,.191.5v2.569Zm4.782-4.512a2.471,2.471,0,0,0-.894.479,2.2,2.2,0,0,0-.589.811,2.878,2.878,0,0,0-.213,1.154,3.06,3.06,0,0,0,.2,1.165,2.246,2.246,0,0,0,.535.8,2.073,2.073,0,0,0,.774.457,2.929,2.929,0,0,0,.932.147,2.715,2.715,0,0,0,1.091-.2v0.174a0.669,0.669,0,0,1-.349.631,1.916,1.916,0,0,1-.938.2,2.842,2.842,0,0,1-.823-0.12,3.674,3.674,0,0,1-.715-0.294,0.875,0.875,0,0,0-.234.289,0.909,0.909,0,0,0-.1.441,0.9,0.9,0,0,0,.567.865,3.732,3.732,0,0,0,1.56.267,4.337,4.337,0,0,0,1.085-.131,2.541,2.541,0,0,0,.884-0.408,2,2,0,0,0,.594-0.7,2.137,2.137,0,0,0,.218-1v-3.81A0.843,0.843,0,0,0,196.618,62a1.326,1.326,0,0,0-.344-0.337,2.987,2.987,0,0,0-.856-0.408,3.79,3.79,0,0,0-1.129-.158A3.867,3.867,0,0,0,193.16,61.256Zm1.805,3.424a1.11,1.11,0,0,1-.709.207,0.9,0.9,0,0,1-.681-0.278,1.283,1.283,0,0,1-.267-0.909,1.242,1.242,0,0,1,.267-0.855,1.018,1.018,0,0,1,.8-0.3,1.313,1.313,0,0,1,.366.044,1.106,1.106,0,0,1,.223.087v2Z"/>
</svg>
