<?xml version="1.0" encoding="utf-8"?>
<!-- Generator: Adobe Illustrator 21.0.0, SVG Export Plug-In . SVG Version: 6.00 Build 0)  -->
<svg version="1.1" id="_xF003__1_" xmlns="http://www.w3.org/2000/svg" xmlns:xlink="http://www.w3.org/1999/xlink" x="0px" y="0px"
	 width="45px" height="45px" viewBox="0 0 45 45" style="enable-background:new 0 0 45 45;" xml:space="preserve">
<style type="text/css">
	.st0{fill:#454A76;}
</style>
<path class="st0" d="M29,34H16c-2.8,0-5-2.2-5-5V16c0-2.8,2.2-5,5-5h13c2.8,0,5,2.2,5,5v13C34,31.8,31.8,34,29,34z M29,32
	c1.7,0,3-1.3,3-3V16c0-1.7-1.3-3-3-3H16c-1.7,0-3,1.3-3,3v13c0,1.7,1.3,3,3,3H29"/>
</svg>
