<?xml version="1.0" encoding="utf-8"?>
<!-- Generator: Adobe Illustrator 21.0.0, SVG Export Plug-In . SVG Version: 6.00 Build 0)  -->
<svg version="1.1" id="_xF003__1_" xmlns="http://www.w3.org/2000/svg" xmlns:xlink="http://www.w3.org/1999/xlink" x="0px" y="0px"
	 width="45px" height="45px" viewBox="0 0 45 45" style="enable-background:new 0 0 45 45;" xml:space="preserve">
<style type="text/css">
	.st0{fill:#454A76;}
	.st1{fill:#FFFFFF;}
</style>
<path class="st0" d="M29,34H16c-2.8,0-5-2.2-5-5V16c0-2.8,2.2-5,5-5h13c2.8,0,5,2.2,5,5v13C34,31.8,31.8,34,29,34z"/>
<g>
	<path class="st1" d="M15.1,24.1l3.9,4c0.3,0.3,0.6,0.4,1,0.4c0.4,0,0.8-0.2,1-0.4l8.9-9.1c0.6-0.6,0.5-1.5,0-2
		c-0.6-0.6-1.5-0.5-2,0L20,25.1l-2.9-3c-0.6-0.6-1.5-0.6-2,0C14.5,22.6,14.5,23.5,15.1,24.1z"/>
</g>
</svg>
