<?xml version="1.0" encoding="utf-8"?>
<!-- Generator: Adobe Illustrator 17.0.0, SVG Export Plug-In . SVG Version: 6.00 Build 0)  -->
<!DOCTYPE svg PUBLIC "-//W3C//DTD SVG 1.1//EN" "http://www.w3.org/Graphics/SVG/1.1/DTD/svg11.dtd">
<svg version="1.1" id="_xF003__1_" xmlns="http://www.w3.org/2000/svg" xmlns:xlink="http://www.w3.org/1999/xlink" x="0px" y="0px"
	 width="45px" height="45px" viewBox="0 0 45 45" style="enable-background:new 0 0 45 45;" xml:space="preserve">
<style type="text/css">
	.st0{fill-rule:evenodd;clip-rule:evenodd;fill:#454A75;}
</style>
<g id="_xF003_">
	<g>
		<path class="st0" d="M38.5,8.2H7.7c-1.8,0-3.4,1.5-3.4,3.4v22.8c0,1.8,1.5,3.4,3.4,3.4h30.8c1.8,0,3.4-1.5,3.4-3.4V11.6
			C41.9,9.7,40.4,8.2,38.5,8.2z M39.2,34.4c0,0.4-0.3,0.7-0.7,0.7H7.7C7.3,35,7,34.7,7,34.4V18.3c0.4,0.5,0.9,1,1.4,1.4
			c3,2.3,6,4.7,8.9,7.1c1.6,1.3,3.5,2.9,5.7,2.9h0h0c2.2,0,4.1-1.6,5.7-2.9c2.9-2.4,5.9-4.8,8.9-7.1c0.5-0.4,1-0.9,1.4-1.4V34.4z
			 M39.2,12.3c0,1.8-1.7,4.1-3.1,5.2c-2.8,2.2-5.6,4.4-8.4,6.6c-1.1,0.9-3.1,2.8-4.6,2.8h0h0c-1.5,0-3.5-1.9-4.6-2.8
			c-2.8-2.2-5.6-4.4-8.4-6.6C8.2,16,7,13.9,7,11.6c0-0.4,0.3-0.7,0.7-0.7h30.8C39.3,10.9,39.2,11.8,39.2,12.3z"/>
	</g>
</g>
</svg>
