<?xml version="1.0" encoding="utf-8"?>
<!-- Generator: Adobe Illustrator 17.0.0, SVG Export Plug-In . SVG Version: 6.00 Build 0)  -->
<!DOCTYPE svg PUBLIC "-//W3C//DTD SVG 1.1//EN" "http://www.w3.org/Graphics/SVG/1.1/DTD/svg11.dtd">
<svg version="1.1" id="_xF10B__1_" xmlns="http://www.w3.org/2000/svg" xmlns:xlink="http://www.w3.org/1999/xlink" x="0px" y="0px"
	 width="45px" height="45px" viewBox="0 0 45 45" style="enable-background:new 0 0 45 45;" xml:space="preserve">
<style type="text/css">
	.st0{fill-rule:evenodd;clip-rule:evenodd;fill:#454A75;}
</style>
<g id="_xF10B_">
	<g>
		<path class="st0" d="M30.8,3H15c-2.2,0-4,1.8-4,4v31.7c0,2.2,1.8,4,4,4h15.8c2.2,0,4-1.8,4-4V7C34.8,4.8,33,3,30.8,3z M20.5,7h4.9
			c0.3,0,0.5,0.2,0.5,0.5S25.7,8,25.4,8h-4.9C20.2,8,20,7.8,20,7.5S20.2,7,20.5,7z M22.9,41.1c-1.4,0-2.5-1.1-2.5-2.5
			s1.1-2.5,2.5-2.5s2.5,1.1,2.5,2.5S24.3,41.1,22.9,41.1z M31.8,33.7c0,0.5-0.5,1-1,1H15c-0.5,0-1-0.5-1-1V11.9c0-0.5,0.5-1,1-1
			h15.8c0.5,0,1,0.5,1,1V33.7z"/>
	</g>
</g>
</svg>
