<?xml version="1.0" encoding="utf-8"?>
<!-- Generator: Adobe Illustrator 21.0.0, SVG Export Plug-In . SVG Version: 6.00 Build 0)  -->
<svg version="1.1" id="_xF003__1_" xmlns="http://www.w3.org/2000/svg" xmlns:xlink="http://www.w3.org/1999/xlink" x="0px" y="0px"
	 width="45px" height="45px" viewBox="0 0 45 45" style="enable-background:new 0 0 45 45;" xml:space="preserve">
<style type="text/css">
	.st0{fill:#454A75;}
</style>
<path class="st0" d="M22.5,16.5v3l4-4l-4-4v3c-4.4,0-8,3.6-8,8c0,1.6,0.5,3,1.2,4.3l1.5-1.5c-0.5-0.8-0.7-1.8-0.7-2.8
	C16.5,19.2,19.2,16.5,22.5,16.5z M29.3,18.2l-1.5,1.5c0.4,0.8,0.7,1.8,0.7,2.8c0,3.3-2.7,6-6,6v-3l-4,4l4,4v-3c4.4,0,8-3.6,8-8
	C30.5,20.9,30,19.5,29.3,18.2z"/>
</svg>
